<?xml version="1.0" encoding="utf-8"?>
<!-- Generator: Adobe Illustrator 23.0.4, SVG Export Plug-In . SVG Version: 6.00 Build 0)  -->
<svg version="1.1" id="레이어_1" xmlns="http://www.w3.org/2000/svg" xmlns:xlink="http://www.w3.org/1999/xlink" x="0px"
	 y="0px" viewBox="0 0 1744.48 343.38" style="enable-background:new 0 0 1744.48 343.38;" xml:space="preserve">
<g>
	<circle cx="846.27" cy="129.69" r="118"/>
	<rect x="1406.21" y="223.69" width="328" height="110"/>
	<rect x="1654.21" y="13.69" width="80" height="200"/>
	<rect x="622.27" y="13.69" width="90" height="320"/>
	<polygon points="608.27,333.69 608.27,9.69 456.27,333.69 	"/>
	<polygon points="506.27,263.69 506.27,5.69 385.33,263.69 	"/>
	<rect x="1304.21" y="13.69" width="90" height="320"/>
	<polygon points="1156.21,333.69 1232.21,333.69 1294.21,13.69 1218.21,13.69 	"/>
	<polyline points="1124.21,13.69 1062.21,333.69 1138.21,333.69 1200.21,13.69 	"/>
	<rect x="972.27" y="13.69" width="80" height="320"/>
	<polygon points="992.27,303.69 992.27,229.69 726.27,253.69 726.27,333.69 	"/>
	<path d="M1630.21,113.69c0,55.23-44.77,100-100,100s-100-44.77-100-100s44.77-100,100-100S1630.21,58.46,1630.21,113.69z
		 M1488.21,75.69h-120v76h120V75.69z"/>
	<rect x="1064.21" y="13.69" width="180" height="70"/>
	<polygon points="1292.21,305.69 1134.21,261.69 1134.21,181.69 1292.21,225.69 	"/>
	<rect x="50.27" y="275.69" width="320" height="58"/>
	<rect x="50.27" y="205.69" width="320" height="58"/>
	<rect x="10.27" y="121.69" width="390" height="70"/>
	<rect x="50.27" y="13.69" width="320" height="70"/>
	<rect x="290.27" y="63.69" width="80" height="50"/>
	<rect x="290.27" y="173.69" width="80" height="50"/>
	<rect x="50.27" y="243.69" width="80" height="50"/>
	<circle cx="1574.21" cy="278.69" r="25"/>
</g>
</svg>
